<?xml version="1.0" encoding="utf-8"?>
<!-- Generator: Adobe Illustrator 25.2.1, SVG Export Plug-In . SVG Version: 6.00 Build 0)  -->
<svg version="1.1" id="Capa_1" xmlns="http://www.w3.org/2000/svg" xmlns:xlink="http://www.w3.org/1999/xlink" x="0px" y="0px"
	 viewBox="0 0 32 32" style="enable-background:new 0 0 32 32;" xml:space="preserve">
<style type="text/css">
	.st0{fill:#01B5D6;}
	.st1{fill:#394764;}
	.st2{clip-path:url(#SVGID_2_);fill:#394764;}
	.st3{clip-path:url(#SVGID_4_);}
	.st4{fill:#FAC80F;}
	.st5{fill:#EBAF00;}
	.st6{fill:#FFE132;}
	.st7{clip-path:url(#SVGID_6_);}
	.st8{fill:#C6A94E;}
	.st9{fill:#68D31E;}
	.st10{clip-path:url(#SVGID_8_);fill:#7AAF43;}
	.st11{clip-path:url(#SVGID_10_);}
	.st12{clip-path:url(#SVGID_12_);}
	.st13{clip-path:url(#SVGID_14_);fill:#7AAF43;}
	.st14{fill:#FFAD38;}
	.st15{opacity:0.3;fill:#FFAD38;}
	.st16{fill:#FFDD2D;}
	.st17{opacity:0.5;}
	.st18{fill:#FFFFFF;}
	.st19{opacity:0.5;fill:#FFDD2D;}
	.st20{fill:#FFB900;}
	.st21{opacity:0.3;fill:#FFB900;}
	
		.st22{opacity:0.4;fill:none;stroke:#FFFFFF;stroke-width:0.8694;stroke-linecap:round;stroke-linejoin:round;stroke-miterlimit:10;}
	.st23{fill:#FA9100;}
	.st24{opacity:0.3;fill:#FA9100;}
	
		.st25{opacity:0.3;fill:none;stroke:#FFFFFF;stroke-width:1.2562;stroke-linecap:round;stroke-linejoin:round;stroke-miterlimit:10;}
	.st26{fill:#FFF0C9;}
	.st27{opacity:0.8;}
	.st28{opacity:0.5;fill:#FFE79D;}
	.st29{fill:#FFE79D;}
	.st30{opacity:0.4;fill:none;stroke:#FFFFFF;stroke-width:1.5;stroke-linecap:round;stroke-linejoin:round;stroke-miterlimit:10;}
	.st31{font-family:'Roboto-Bold';}
	.st32{font-size:19.0014px;}
	.st33{clip-path:url(#SVGID_16_);fill:#FFFFFF;}
</style>
<rect x="194.62" y="125.49" class="st0" width="53.93" height="53.93"/>
<rect x="122.35" y="125.49" class="st1" width="53.93" height="53.93"/>
<g>
	<text transform="matrix(1 0 0 1 -80.0272 -60.2947)"><tspan x="0" y="0" class="st1" style="font-family:'Roboto-Thin'; font-size:40.8302px;">Seismo</tspan><tspan x="132.52" y="0" class="st1 st31" style="font-size:40.8302px;">Lab</tspan></text>
</g>
<g>
	<defs>
		<rect id="SVGID_1_" x="114.34" y="-83.38" width="39.26" height="27.96"/>
	</defs>
	<clipPath id="SVGID_2_">
		<use xlink:href="#SVGID_1_"  style="overflow:visible;"/>
	</clipPath>
	<path class="st2" d="M160.92-43.18c-0.5,1.06-0.83,2.22-1.55,3.15c-1.63,2.1-4.07,3.16-7.07,3.17c-6.09,0.02-12.18,0.01-18.26,0
		c-1.7,0-2.66-0.81-2.67-2.27c-0.01-3.11,0-6.23,0-9.34c0-0.24,0-0.49,0-0.83c-0.38,0-0.69,0-0.99,0c-11.69,0-23.38,0-35.06,0
		c-0.27,0-0.54,0.01-0.81-0.01c-1.62-0.07-2.55-0.89-2.56-2.26c0-4.54,0-9.07,0-13.61c0-0.22,0-0.45,0-0.72
		c-1.7-0.09-3.1-0.63-4.08-1.8c-0.67-0.8-0.97-1.71-0.88-2.69c0.19-2.13,2.02-3.59,4.96-3.89c0-0.21,0-0.43,0-0.65
		c0-4.45,0-8.91,0-13.36c0-1.84,0.85-2.56,3-2.56c19.05,0,38.09,0,57.14,0c4.48,0,7.89,2.4,8.71,6.11c0.02,0.07,0.08,0.14,0.12,0.21
		C160.92-70.74,160.92-56.96,160.92-43.18z M94.45-51.37c0.4,0,0.72,0,1.03,0c18.78,0,37.56,0.01,56.34-0.01
		c1.91,0,3.68,0.33,5.27,1.24c0.43,0.25,0.84,0.54,1.3,0.84c0.02-0.14,0.05-0.21,0.05-0.29c0-6.23,0-12.45,0-18.68
		c0-0.14,0-0.32-0.1-0.41c-0.64-0.57-1.31-1.13-2.01-1.72c-0.57,0.96-1.08,1.8-1.57,2.65c-0.26,0.45-0.65,0.73-1.25,0.72
		c-0.57-0.01-0.95-0.27-1.19-0.7c-0.25-0.45-0.52-0.89-0.78-1.33c-0.4-0.66-0.79-1.33-1.26-2.11c-0.1,0.36-0.16,0.55-0.22,0.75
		c-0.88,3.23-1.76,6.46-2.65,9.69c-0.19,0.69-0.67,1.05-1.33,1.02c-0.64-0.03-1.05-0.38-1.18-1.07c-0.63-3.33-1.26-6.67-1.88-10.01
		c-0.26-1.38-0.52-2.77-0.79-4.15c-0.17,0.11-0.22,0.22-0.25,0.34c-0.65,2.2-1.31,4.39-1.95,6.59c-0.17,0.57-0.5,1.01-1.25,1.03
		c-0.71,0.01-1.09-0.37-1.27-0.93c-0.36-1.09-0.74-2.18-1.16-3.43c-0.16,0.46-0.26,0.76-0.35,1.05c-1.13,3.56-2.25,7.12-3.38,10.68
		c-0.21,0.65-0.7,0.98-1.33,0.94c-0.62-0.04-1.08-0.43-1.15-1.03c-0.5-4.39-0.99-8.78-1.48-13.17c-0.13-1.19-0.27-2.38-0.41-3.58
		c-1.13,2.32-2.08,4.65-3.12,6.95c-0.77,1.71-1.65,3.39-2.51,5.07c-0.23,0.44-0.65,0.72-1.3,0.58c-0.65-0.15-0.97-0.52-1.02-1.07
		c-0.1-1.23-0.19-2.47-0.3-3.7c-0.14-1.59-0.3-3.18-0.45-4.77c-0.21,0.17-0.31,0.34-0.39,0.53c-0.45,1-0.9,2-1.33,3.01
		c-0.24,0.56-0.68,0.82-1.39,0.8c-0.68-0.02-1.37-0.02-2.05,0.01c-0.2,0.01-0.49,0.11-0.57,0.24c-0.75,1.24-1.99,1.73-3.57,1.82
		c-3.9,0.21-7.81,0.44-11.71,0.66c-1.35,0.08-2.71,0.17-4.06,0.25C94.45-61.14,94.45-56.3,94.45-51.37z M94.45-74.11
		c0.47,0.04,0.86,0.08,1.25,0.1c5,0.29,10,0.58,15,0.87c1.32,0.08,2.36,0.6,2.94,1.59c0.43,0.74,1.14,0.35,1.72,0.39
		c0.19,0.01,0.51-0.31,0.61-0.53c1.02-2.25,2.02-4.5,3.01-6.76c0.25-0.56,0.6-1.01,1.4-0.97c0.68,0.04,1.07,0.44,1.15,1.23
		c0.13,1.23,0.23,2.47,0.35,3.7c0.15,1.61,0.31,3.22,0.47,4.83c0.24-0.18,0.33-0.38,0.42-0.58c1.62-3.79,3.25-7.59,4.86-11.39
		c0.24-0.56,0.61-0.94,1.38-0.89c0.65,0.04,1.03,0.41,1.11,1.11c0.39,3.34,0.76,6.69,1.14,10.03c0.21,1.83,0.41,3.66,0.62,5.49
		c0.47-1.03,0.8-2.08,1.14-3.13c0.68-2.13,1.36-4.25,2.02-6.38c0.17-0.55,0.56-0.89,1.22-0.89c0.67-0.01,1.06,0.34,1.24,0.88
		c0.15,0.48,0.32,0.95,0.49,1.42c0.2,0.59,0.41,1.18,0.61,1.77c0.93-2.76,1.74-5.49,2.56-8.23c0.21-0.71,0.67-1.07,1.31-1.05
		c0.66,0.02,1.1,0.4,1.23,1.12c0.6,3.21,1.2,6.43,1.8,9.64c0.26,1.39,0.53,2.78,0.79,4.17c0.17-0.08,0.21-0.16,0.24-0.25
		c0.29-1.06,0.59-2.13,0.88-3.19c0.4-1.44,0.79-2.89,1.18-4.33c0.13-0.48,0.43-0.83,1.05-0.9c0.64-0.07,1.08,0.18,1.35,0.66
		c0.13,0.22,0.26,0.44,0.39,0.66c0.69,1.16,1.38,2.33,2.13,3.59c0.45-0.76,0.84-1.43,1.24-2.08c0.56-0.91,1.41-1.02,2.29-0.3
		c0.42,0.35,0.84,0.7,1.35,1.11c0.02-0.23,0.03-0.33,0.03-0.43c0-3.84,0-7.67,0-11.51c0-0.31-0.03-0.62-0.08-0.92
		c-0.4-2.06-2.58-4.32-6.55-4.32c-18.85,0.04-37.71,0.02-56.56,0.02c-0.26,0-0.52,0.02-0.79,0.03C94.45-83.84,94.45-79,94.45-74.11z
		 M133.85-38.97c0.23,0.02,0.41,0.05,0.6,0.05c5.87,0,11.73,0.02,17.6-0.02c0.95-0.01,1.96-0.17,2.83-0.49
		c2.59-0.95,4-3.36,3.45-5.65c-0.61-2.5-2.96-4.19-6.04-4.2c-5.96-0.03-11.93-0.01-17.89-0.01c-0.18,0-0.37,0.04-0.56,0.06
		C133.85-45.79,133.85-42.4,133.85-38.97z M92.5-68c0-0.02,0-0.03,0.01-0.05c5.39-0.31,10.77-0.61,16.16-0.92
		c0.61-0.03,1.22-0.05,1.83-0.12c0.72-0.07,1.15-0.47,1.13-1.02c-0.02-0.59-0.42-0.9-1.09-0.98c-0.31-0.04-0.63-0.05-0.95-0.07
		c-3.36-0.19-6.73-0.39-10.09-0.58c-2.54-0.14-5.07-0.3-7.61-0.41c-1.23-0.05-2.26,0.69-2.45,1.67c-0.21,1.06,0.45,2.04,1.62,2.34
		C91.52-68.02,92.02-68.04,92.5-68z"/>
</g>
<g>
	<defs>
		<rect id="SVGID_3_" x="1133.32" y="-60.29" width="561.44" height="317.84"/>
	</defs>
	<clipPath id="SVGID_4_">
		<use xlink:href="#SVGID_3_"  style="overflow:visible;"/>
	</clipPath>
	<g class="st3">
		<path class="st4" d="M1323.88-25.41c0-9.22-0.02-18.44,0.01-27.66c0.02-4.46,2.22-7.12,5.83-7.22c3.74-0.1,6.12,2.67,6.13,7.3
			c0.02,18.32,0.02,36.63,0,54.95c-0.01,4.73-2.23,7.39-6.02,7.37c-3.79-0.02-5.92-2.66-5.94-7.45
			C1323.87-7.22,1323.88-16.32,1323.88-25.41z"/>
		<path class="st5" d="M1429.47,63.08c0.74-0.9,1.77-3.08,3.49-4.1c16.31-9.61,32.73-19.04,49.16-28.45
			c3.32-1.9,6.75-0.97,8.47,1.95c1.73,2.94,0.9,6.36-2.46,8.32c-16.47,9.59-32.96,19.15-49.53,28.56
			C1434.28,71.82,1429.43,68.95,1429.47,63.08z"/>
		<path class="st4" d="M1173.38,28.83c2.35,1,3.78,1.44,5.04,2.17c15.88,9.12,31.74,18.26,47.58,27.45c4.16,2.41,5.33,5.66,3.42,8.9
			c-1.88,3.2-5.37,3.77-9.45,1.42c-15.98-9.2-31.93-18.44-47.9-27.65c-2.75-1.59-4.7-3.93-3.43-7.01
			C1169.52,32.02,1171.8,30.52,1173.38,28.83z"/>
		<path class="st5" d="M1391.91,25.7c-5.31,0.08-8.56-4.5-6.43-8.4c5.49-10.05,11.3-19.93,17.17-29.77
			c1.66-2.78,5.31-3.34,7.92-1.63c2.79,1.83,3.8,4.64,2.22,7.47c-5.55,10.02-11.31,19.93-17.2,29.74
			C1394.75,24.51,1392.7,25.17,1391.91,25.7z"/>
		<path class="st4" d="M1267.67,25.72c-0.9-0.73-3.08-1.76-4.11-3.47c-5.54-9.17-10.83-18.48-16.11-27.8
			c-1.99-3.52-1.08-7.08,1.96-8.73c2.95-1.6,6.36-0.63,8.29,2.66c5.42,9.24,10.8,18.5,16.04,27.84
			C1276.31,20.79,1273.67,25.73,1267.67,25.72z"/>
		<path d="M1274.88,231.52c-0.33,0.8-0.75,2.25-1.47,3.52c-5.06,8.87-10.17,17.71-15.31,26.53c-2.22,3.81-5.51,5.03-8.67,3.35
			c-3.14-1.67-3.96-5.32-1.83-9.05c5.24-9.2,10.54-18.36,15.86-27.51c1.52-2.61,3.8-4.05,6.88-3.23
			C1273.17,225.88,1274.68,227.89,1274.88,231.52z"/>
		<path d="M1406.09,265.6c-0.82-0.66-2.9-1.6-3.87-3.22c-5.59-9.28-10.96-18.69-16.3-28.12c-1.9-3.36-1.03-6.73,1.87-8.48
			c2.92-1.76,6.36-0.94,8.32,2.39c5.57,9.44,11.1,18.9,16.41,28.48C1414.93,261,1411.97,265.75,1406.09,265.6z"/>
		<path class="st4" d="M1191.22,131.3c-5.23,0-10.47,0.05-15.7-0.02c-4.2-0.05-6.66-2.29-6.71-5.9c-0.04-3.62,2.42-6.01,6.55-6.04
			c10.59-0.06,21.18-0.06,31.77,0c4.18,0.02,6.69,2.32,6.73,5.89c0.05,3.71-2.54,6.01-6.95,6.05
			C1201.69,131.34,1196.45,131.3,1191.22,131.3z"/>
		<path class="st5" d="M1468.11,131.3c-5.11,0-10.22,0.04-15.33-0.01c-4.4-0.05-6.98-2.37-6.92-6.09c0.06-3.57,2.56-5.84,6.76-5.86
			c10.47-0.05,20.93-0.05,31.4,0c4.42,0.02,6.95,2.33,6.89,6.08c-0.06,3.71-2.58,5.84-7.11,5.87
			C1478.57,131.33,1473.34,131.3,1468.11,131.3z"/>
		<g>
			<path class="st6" d="M1330.05,29.5c52.92,0.08,95.75,43.15,95.63,96.17c-0.12,52.55-43.15,95.52-95.59,95.46
				c-53.2-0.06-96.09-43.03-96.02-96.2C1234.13,72.28,1277.23,29.43,1330.05,29.5z M1329.87,41.48
				c-46.6,0.13-83.98,37.79-83.83,84.5c0.14,45.65,37.99,83.27,83.65,83.14c47.11-0.13,84.1-37.58,84-85.04
				C1413.59,78.92,1375.48,41.36,1329.87,41.48z"/>
			<circle class="st6" cx="1329.87" cy="125.32" r="88.36"/>
		</g>
		<g>
			<defs>
				<rect id="SVGID_5_" x="1329.87" y="-32.89" width="202.28" height="349.48"/>
			</defs>
			<clipPath id="SVGID_6_">
				<use xlink:href="#SVGID_5_"  style="overflow:visible;"/>
			</clipPath>
			<g class="st7">
				<path class="st8" d="M1330.05,29.5c52.92,0.08,95.75,43.15,95.63,96.17c-0.12,52.55-43.15,95.52-95.59,95.46
					c-53.2-0.06-96.09-43.03-96.02-96.2C1234.13,72.28,1277.23,29.43,1330.05,29.5z M1329.87,41.48
					c-46.6,0.13-83.98,37.79-83.83,84.5c0.14,45.65,37.99,83.27,83.65,83.14c47.11-0.13,84.1-37.58,84-85.04
					C1413.59,78.92,1375.48,41.36,1329.87,41.48z"/>
				<circle class="st8" cx="1329.87" cy="125.32" r="88.36"/>
			</g>
		</g>
		<path class="st9" d="M1368.24,198.71c0,46.05-41.87,83.39-93.52,83.39c-51.65,0-93.52-37.33-93.52-83.39s41.87-83.39,93.52-83.39
			C1326.37,115.33,1368.24,152.66,1368.24,198.71z"/>
		<g>
			<defs>
				<rect id="SVGID_7_" x="1329.86" y="-1.34" width="253.26" height="348.27"/>
			</defs>
			<clipPath id="SVGID_8_">
				<use xlink:href="#SVGID_7_"  style="overflow:visible;"/>
			</clipPath>
			<path class="st10" d="M1368.4,198.71c0,46.05-41.87,83.39-93.52,83.39c-51.65,0-93.52-37.33-93.52-83.39s41.87-83.39,93.52-83.39
				C1326.53,115.33,1368.4,152.66,1368.4,198.71z"/>
		</g>
		<ellipse class="st9" cx="1399.18" cy="230.97" rx="84.27" ry="67.09"/>
	</g>
</g>
<g>
	<defs>
		<rect id="SVGID_9_" x="757.14" y="256.17" width="561.44" height="317.84"/>
	</defs>
	<clipPath id="SVGID_10_">
		<use xlink:href="#SVGID_9_"  style="overflow:visible;"/>
	</clipPath>
	<g class="st11">
		<path class="st4" d="M947.7,291.06c0-9.22-0.02-18.44,0.01-27.66c0.02-4.46,2.22-7.12,5.83-7.22c3.74-0.1,6.12,2.67,6.13,7.3
			c0.02,18.32,0.02,36.63,0,54.95c-0.01,4.73-2.23,7.39-6.02,7.37c-3.79-0.02-5.92-2.66-5.94-7.45
			C947.69,309.25,947.7,300.15,947.7,291.06z"/>
		<path class="st5" d="M1053.29,379.55c0.74-0.9,1.77-3.08,3.49-4.1c16.31-9.61,32.73-19.04,49.16-28.45
			c3.32-1.9,6.75-0.97,8.47,1.95c1.73,2.94,0.9,6.36-2.46,8.32c-16.47,9.59-32.96,19.15-49.53,28.56
			C1058.1,388.29,1053.25,385.42,1053.29,379.55z"/>
		<path class="st4" d="M797.2,345.3c2.35,1,3.78,1.44,5.04,2.17c15.88,9.12,31.74,18.26,47.58,27.45c4.16,2.41,5.33,5.66,3.42,8.9
			c-1.88,3.2-5.37,3.77-9.45,1.42c-15.98-9.2-31.93-18.44-47.9-27.65c-2.75-1.59-4.7-3.93-3.43-7.01
			C793.34,348.49,795.62,346.99,797.2,345.3z"/>
		<path class="st5" d="M1015.73,342.17c-5.31,0.08-8.56-4.5-6.43-8.4c5.49-10.05,11.3-19.93,17.17-29.77
			c1.66-2.78,5.31-3.34,7.92-1.63c2.79,1.83,3.8,4.64,2.22,7.47c-5.55,10.02-11.31,19.93-17.2,29.74
			C1018.57,340.98,1016.52,341.64,1015.73,342.17z"/>
		<path class="st4" d="M891.49,342.19c-0.9-0.73-3.08-1.76-4.11-3.47c-5.53-9.17-10.83-18.48-16.11-27.8
			c-1.99-3.52-1.08-7.08,1.96-8.73c2.95-1.6,6.36-0.63,8.29,2.66c5.42,9.24,10.8,18.5,16.04,27.84
			C900.13,337.26,897.49,342.2,891.49,342.19z"/>
		<path d="M898.7,547.99c-0.33,0.8-0.75,2.25-1.47,3.52c-5.06,8.87-10.17,17.71-15.31,26.53c-2.22,3.81-5.51,5.03-8.67,3.35
			c-3.14-1.67-3.96-5.32-1.83-9.05c5.24-9.2,10.54-18.36,15.86-27.51c1.52-2.61,3.8-4.05,6.88-3.23
			C896.99,542.35,898.5,544.36,898.7,547.99z"/>
		<path d="M1029.91,582.07c-0.82-0.66-2.9-1.6-3.87-3.22c-5.59-9.28-10.96-18.69-16.3-28.12c-1.9-3.36-1.03-6.73,1.87-8.48
			c2.92-1.76,6.36-0.94,8.32,2.39c5.57,9.44,11.1,18.9,16.41,28.48C1038.75,577.47,1035.79,582.22,1029.91,582.07z"/>
		<path class="st4" d="M815.04,447.77c-5.23,0-10.47,0.05-15.7-0.02c-4.2-0.05-6.66-2.29-6.71-5.9c-0.04-3.62,2.42-6.01,6.55-6.04
			c10.59-0.06,21.18-0.06,31.77,0c4.18,0.02,6.69,2.32,6.73,5.89c0.05,3.71-2.54,6.01-6.95,6.05
			C825.51,447.81,820.27,447.77,815.04,447.77z"/>
		<path class="st5" d="M1091.93,447.77c-5.11,0-10.22,0.04-15.33-0.01c-4.4-0.05-6.98-2.37-6.92-6.09c0.06-3.57,2.56-5.84,6.76-5.86
			c10.47-0.05,20.93-0.05,31.4,0c4.42,0.02,6.95,2.33,6.89,6.08c-0.06,3.71-2.58,5.84-7.11,5.87
			C1102.4,447.8,1097.16,447.77,1091.93,447.77z"/>
		<g>
			<path class="st6" d="M953.87,345.97c52.92,0.08,95.75,43.15,95.63,96.17c-0.12,52.55-43.15,95.52-95.59,95.46
				c-53.2-0.06-96.09-43.03-96.02-96.2C857.95,388.75,901.05,345.9,953.87,345.97z M953.69,357.95
				c-46.6,0.13-83.98,37.79-83.83,84.5c0.14,45.65,37.99,83.27,83.65,83.14c47.11-0.13,84.1-37.58,84-85.04
				C1037.41,395.39,999.3,357.83,953.69,357.95z"/>
			<circle class="st6" cx="953.69" cy="441.78" r="88.36"/>
		</g>
		<g>
			<defs>
				<rect id="SVGID_11_" x="953.69" y="283.58" width="202.28" height="349.48"/>
			</defs>
			<clipPath id="SVGID_12_">
				<use xlink:href="#SVGID_11_"  style="overflow:visible;"/>
			</clipPath>
			<g class="st12">
				<path class="st8" d="M953.87,345.97c52.92,0.08,95.75,43.15,95.63,96.17c-0.12,52.55-43.15,95.52-95.59,95.46
					c-53.2-0.06-96.09-43.03-96.02-96.2C857.95,388.75,901.05,345.9,953.87,345.97z M953.69,357.95
					c-46.6,0.13-83.98,37.79-83.83,84.5c0.14,45.65,37.99,83.27,83.65,83.14c47.11-0.13,84.1-37.58,84-85.04
					C1037.41,395.39,999.3,357.83,953.69,357.95z"/>
				<circle class="st8" cx="953.69" cy="441.78" r="88.36"/>
			</g>
		</g>
		<path class="st9" d="M992.06,515.18c0,46.05-41.87,83.39-93.52,83.39c-51.65,0-93.52-37.33-93.52-83.39s41.87-83.39,93.52-83.39
			C950.19,431.79,992.06,469.13,992.06,515.18z"/>
		<g>
			<defs>
				<rect id="SVGID_13_" x="953.68" y="315.13" width="253.26" height="348.27"/>
			</defs>
			<clipPath id="SVGID_14_">
				<use xlink:href="#SVGID_13_"  style="overflow:visible;"/>
			</clipPath>
			<path class="st13" d="M992.22,515.18c0,46.05-41.87,83.39-93.52,83.39c-51.65,0-93.52-37.33-93.52-83.39s41.87-83.39,93.52-83.39
				C950.35,431.79,992.22,469.13,992.22,515.18z"/>
		</g>
		<ellipse class="st9" cx="1023" cy="547.44" rx="84.27" ry="67.09"/>
	</g>
</g>
<g>
	<g>
		<polygon class="st14" points="385.44,-85.56 392.97,-88.9 385.57,-92.18 388.64,-95.36 384.09,-95.51 387.05,-103.19 
			379.5,-100.29 379.42,-104.7 376.09,-101.58 372.75,-109.11 369.47,-101.72 366.29,-104.79 366.15,-100.23 358.46,-103.19 
			361.37,-95.64 356.95,-95.56 360.07,-92.24 352.54,-88.9 359.93,-85.62 356.86,-82.43 361.42,-82.29 358.46,-74.61 366.01,-77.51 
			366.09,-73.09 369.41,-76.22 372.75,-68.69 376.03,-76.08 379.22,-73.01 379.36,-77.57 387.05,-74.61 384.14,-82.15 
			388.56,-82.23 		"/>
		<polygon class="st15" points="383.52,-86.06 389.91,-88.9 383.64,-91.68 386.24,-94.39 382.37,-94.51 384.89,-101.03 
			378.48,-98.57 378.41,-102.32 375.59,-99.67 372.75,-106.06 369.97,-99.78 367.27,-102.39 367.14,-98.52 360.62,-101.03 
			363.09,-94.63 359.33,-94.56 361.99,-91.73 355.59,-88.9 361.87,-86.11 359.26,-83.41 363.13,-83.29 360.62,-76.76 367.03,-79.23 
			367.1,-75.48 369.92,-78.13 372.75,-71.74 375.54,-78.01 378.24,-75.41 378.36,-79.28 384.89,-76.76 382.42,-83.17 386.17,-83.24 
					"/>
	</g>
	<g>
		
			<ellipse transform="matrix(0.1602 -0.9871 0.9871 0.1602 400.7953 293.2808)" class="st16" cx="372.75" cy="-88.9" rx="10.2" ry="10.2"/>
		<g class="st17">
			<path class="st18" d="M365.45-94.35c0.75-1.16,1.85-2.09,3.11-2.74c1.26-0.65,2.69-0.99,4.12-1c1.43-0.01,2.87,0.31,4.14,0.93
				c1.27,0.63,2.39,1.55,3.15,2.7c0.1,0.16,0.06,0.37-0.1,0.47c-0.12,0.08-0.26,0.07-0.37,0l0,0c-1.08-0.69-2.18-1.25-3.32-1.6
				c-1.14-0.36-2.31-0.54-3.48-0.53c-1.18,0-2.34,0.2-3.48,0.58c-1.14,0.37-2.22,0.95-3.29,1.66l0,0c-0.16,0.1-0.37,0.06-0.47-0.09
				C365.38-94.1,365.38-94.24,365.45-94.35z"/>
		</g>
		<path class="st19" d="M381.52-94.12c0.23,0.8,0.36,1.65,0.36,2.52c0,5.04-4.08,9.12-9.12,9.12c-5.04,0-9.12-4.08-9.12-9.12
			c0-0.88,0.13-1.72,0.36-2.52c-0.91,1.53-1.44,3.31-1.44,5.22c0,5.64,4.57,10.2,10.2,10.2c5.64,0,10.2-4.57,10.2-10.2
			C382.96-90.81,382.43-92.59,381.52-94.12z"/>
	</g>
</g>
<g>
	<g>
		<path class="st20" d="M307.64-83.41l0.7,1.53c0.05,0.1,0.14,0.17,0.24,0.18l1.67,0.2c0.26,0.03,0.37,0.36,0.17,0.54l-1.23,1.14
			c-0.08,0.07-0.11,0.18-0.09,0.29l0.33,1.65c0.05,0.26-0.22,0.46-0.46,0.33l-1.47-0.82c-0.09-0.05-0.21-0.05-0.3,0l-1.47,0.82
			c-0.23,0.13-0.51-0.07-0.46-0.33l0.33-1.65c0.02-0.11-0.01-0.21-0.09-0.29l-1.23-1.14c-0.19-0.18-0.09-0.5,0.17-0.54l1.67-0.2
			c0.11-0.01,0.2-0.08,0.24-0.18l0.7-1.53C307.19-83.65,307.53-83.65,307.64-83.41z"/>
		<path class="st21" d="M310.44-80.97c0.19-0.18,0.09-0.5-0.17-0.54l-0.32-0.04l-1.19,1.1c-0.08,0.07-0.11,0.18-0.09,0.29l0.33,1.65
			c0.05,0.26-0.22,0.46-0.46,0.33L307.06-79c-0.09-0.05-0.21-0.05-0.3,0l-1.41,0.79l-0.06,0.32c-0.05,0.26,0.22,0.46,0.46,0.33
			l1.47-0.82c0.09-0.05,0.21-0.05,0.3,0l1.47,0.82c0.23,0.13,0.51-0.07,0.46-0.33l-0.33-1.65c-0.02-0.11,0.01-0.21,0.09-0.29
			L310.44-80.97z"/>
		<polyline class="st22" points="304.77,-81.04 306.69,-81.31 307.36,-82.92 		"/>
	</g>
	<g>
		<path class="st23" d="M307.91-76.06l1.02,2.21c0.07,0.14,0.2,0.24,0.35,0.26l2.41,0.29c0.38,0.04,0.53,0.51,0.25,0.77l-1.78,1.65
			c-0.11,0.11-0.17,0.26-0.14,0.42l0.47,2.38c0.07,0.37-0.32,0.66-0.66,0.48l-2.12-1.19c-0.14-0.08-0.3-0.08-0.44,0l-2.12,1.19
			c-0.33,0.19-0.73-0.1-0.66-0.48l0.47-2.38c0.03-0.15-0.02-0.31-0.14-0.42l-1.78-1.65c-0.28-0.26-0.13-0.73,0.25-0.77l2.41-0.29
			c0.15-0.02,0.29-0.12,0.35-0.26l1.02-2.21C307.26-76.41,307.75-76.41,307.91-76.06z"/>
		<path class="st24" d="M311.95-72.54c0.28-0.26,0.13-0.73-0.25-0.77l-0.46-0.06l-1.72,1.59c-0.11,0.11-0.17,0.26-0.14,0.42
			l0.47,2.38c0.07,0.37-0.32,0.66-0.66,0.48l-2.12-1.19c-0.14-0.08-0.3-0.08-0.44,0l-2.03,1.14l-0.09,0.46
			c-0.07,0.37,0.32,0.66,0.66,0.48l2.12-1.19c0.14-0.08,0.3-0.08,0.44,0l2.12,1.19c0.33,0.19,0.73-0.1,0.66-0.48l-0.47-2.38
			c-0.03-0.15,0.02-0.31,0.14-0.42L311.95-72.54z"/>
		<polyline class="st25" points="303.76,-72.64 306.54,-73.03 307.51,-75.36 		"/>
	</g>
	<g>
		<g>
			<path class="st26" d="M302.71-61.14c-7.88,0-14.27-6.39-14.27-14.27c0-7.88,6.39-14.27,14.27-14.27c4.06,0,7.72,1.7,10.31,4.41
				c-3.49-6.37-10.25-10.69-18.03-10.69c-11.35,0-20.54,9.2-20.54,20.54c0,11.35,9.2,20.54,20.54,20.54
				c7.77,0,14.54-4.32,18.03-10.69C310.43-62.84,306.77-61.14,302.71-61.14z"/>
		</g>
		<g class="st27">
			<path class="st18" d="M277.39-79.38c-0.21-2.97,0.66-5.82,2.2-8.35c1.54-2.53,3.85-4.6,6.42-5.99c2.55-1.42,5.52-2.29,8.48-2.25
				c1.48,0.01,2.94,0.21,4.33,0.61c1.4,0.42,2.71,0.95,3.94,1.85c0.34,0.25,0.41,0.72,0.17,1.06c-0.18,0.25-0.48,0.35-0.76,0.3
				l-0.09-0.02c-2.46-0.49-5.02-0.6-7.4-0.28c-2.4,0.31-4.67,1.07-6.81,2.2c-1.08,0.55-2.07,1.22-3.03,1.93
				c-0.43,0.4-0.93,0.75-1.33,1.2l-0.64,0.63l-0.58,0.68c-1.53,1.83-2.73,4.12-3.41,6.5l-0.03,0.1c-0.11,0.4-0.53,0.63-0.93,0.52
				C277.62-78.8,277.42-79.08,277.39-79.38z"/>
		</g>
		<g>
			<path class="st28" d="M287.7-82.45c-3.5,10.72,3.22,15.07,3.22,15.07l0,0c-1.56-2.29-2.47-5.05-2.47-8.03
				c0-7.88,6.39-14.27,14.27-14.27c4.06,0,7.72,1.7,10.31,4.41C306.52-95.47,291.03-92.66,287.7-82.45z"/>
			<g class="st17">
				<path class="st29" d="M297.14-57.94c-11.35,0-20.54-9.2-20.54-20.54c0-3.7,0.98-7.16,2.69-10.16
					c-3.02,3.58-4.84,8.19-4.84,13.23c0,11.35,9.2,20.54,20.54,20.54c7.65,0,14.31-4.18,17.85-10.38
					C309.08-60.78,303.45-57.94,297.14-57.94z"/>
			</g>
		</g>
	</g>
	<g>
		<path class="st16" d="M298.36-81l1.21,2.63c0.08,0.17,0.24,0.29,0.42,0.31l2.88,0.34c0.45,0.05,0.63,0.61,0.3,0.92l-2.13,1.97
			c-0.14,0.13-0.2,0.31-0.16,0.5l0.57,2.85c0.09,0.45-0.39,0.79-0.79,0.57l-2.53-1.42c-0.16-0.09-0.36-0.09-0.52,0l-2.53,1.42
			c-0.4,0.22-0.87-0.12-0.79-0.57l0.57-2.85c0.04-0.18-0.02-0.37-0.16-0.5l-2.13-1.97c-0.33-0.31-0.15-0.87,0.3-0.92l2.88-0.34
			c0.18-0.02,0.34-0.14,0.42-0.31l1.21-2.63C297.58-81.42,298.17-81.42,298.36-81z"/>
		<path class="st19" d="M303.18-76.8c0.33-0.31,0.15-0.87-0.3-0.92l-0.55-0.07l-2.06,1.9c-0.14,0.13-0.2,0.31-0.16,0.5l0.57,2.85
			c0.09,0.45-0.39,0.79-0.79,0.57l-2.53-1.42c-0.16-0.09-0.36-0.09-0.52,0l-2.43,1.36l-0.11,0.54c-0.09,0.45,0.39,0.79,0.79,0.57
			l2.53-1.42c0.16-0.09,0.36-0.09,0.52,0l2.53,1.42c0.4,0.22,0.87-0.12,0.79-0.57l-0.57-2.85c-0.04-0.18,0.02-0.37,0.16-0.5
			L303.18-76.8z"/>
		<polyline class="st30" points="293.4,-76.91 296.73,-77.38 297.88,-80.16 		"/>
	</g>
</g>
<g>
	<text transform="matrix(1 0 0 1 0.4126 14.6264)" class="st18 st31 st32">Lab</text>
</g>
<g>
	<defs>
		<rect id="SVGID_15_" x="4.38" y="15.45" width="23.25" height="16.55"/>
	</defs>
	<clipPath id="SVGID_16_">
		<use xlink:href="#SVGID_15_"  style="overflow:visible;"/>
	</clipPath>
	<path class="st33" d="M31.95,39.24c-0.3,0.63-0.49,1.31-0.92,1.87c-0.97,1.24-2.41,1.87-4.18,1.88c-3.6,0.01-7.21,0-10.81,0
		c-1.01,0-1.58-0.48-1.58-1.35c-0.01-1.84,0-3.69,0-5.53c0-0.14,0-0.29,0-0.49c-0.22,0-0.41,0-0.59,0c-6.92,0-13.84,0-20.76,0
		c-0.16,0-0.32,0-0.48,0c-0.96-0.04-1.51-0.52-1.51-1.34c0-2.69,0-5.37,0-8.06c0-0.13,0-0.27,0-0.43c-1.01-0.05-1.84-0.37-2.41-1.07
		c-0.4-0.48-0.57-1.01-0.52-1.59c0.11-1.26,1.2-2.12,2.94-2.3c0-0.12,0-0.25,0-0.38c0-2.64,0-5.27,0-7.91c0-1.09,0.5-1.51,1.77-1.51
		c11.28,0,22.55,0,33.83,0c2.65,0,4.67,1.42,5.16,3.62c0.01,0.04,0.05,0.08,0.07,0.13C31.95,22.93,31.95,31.09,31.95,39.24z
		 M-7.4,34.39c0.24,0,0.42,0,0.61,0c11.12,0,22.24,0,33.36,0c1.13,0,2.18,0.2,3.12,0.73c0.26,0.15,0.5,0.32,0.77,0.5
		c0.01-0.08,0.03-0.13,0.03-0.17c0-3.69,0-7.37,0-11.06c0-0.08,0-0.19-0.06-0.24c-0.38-0.34-0.78-0.67-1.19-1.02
		C28.9,23.7,28.6,24.2,28.3,24.7c-0.15,0.26-0.38,0.43-0.74,0.43c-0.34,0-0.56-0.16-0.71-0.41c-0.15-0.26-0.31-0.52-0.46-0.79
		c-0.23-0.39-0.47-0.79-0.75-1.25c-0.06,0.21-0.1,0.33-0.13,0.45c-0.52,1.91-1.04,3.82-1.57,5.74c-0.11,0.41-0.4,0.62-0.79,0.6
		c-0.38-0.02-0.62-0.23-0.7-0.64c-0.38-1.97-0.74-3.95-1.12-5.92c-0.15-0.82-0.31-1.64-0.46-2.46c-0.1,0.07-0.13,0.13-0.15,0.2
		c-0.39,1.3-0.78,2.6-1.16,3.9c-0.1,0.34-0.29,0.6-0.74,0.61c-0.42,0.01-0.65-0.22-0.75-0.55c-0.22-0.65-0.44-1.29-0.69-2.03
		c-0.09,0.27-0.15,0.45-0.21,0.62c-0.67,2.11-1.33,4.22-2,6.32c-0.12,0.38-0.41,0.58-0.79,0.56c-0.36-0.02-0.64-0.26-0.68-0.61
		c-0.3-2.6-0.58-5.2-0.88-7.8c-0.08-0.71-0.16-1.41-0.24-2.12c-0.67,1.37-1.23,2.75-1.85,4.12c-0.46,1.01-0.97,2.01-1.48,3
		c-0.13,0.26-0.39,0.43-0.77,0.34c-0.38-0.09-0.58-0.31-0.6-0.63c-0.06-0.73-0.11-1.46-0.18-2.19c-0.08-0.94-0.18-1.88-0.27-2.82
		c-0.12,0.1-0.18,0.2-0.23,0.31c-0.27,0.59-0.53,1.18-0.79,1.78c-0.14,0.33-0.41,0.48-0.82,0.48c-0.41-0.01-0.81-0.01-1.22,0
		C4.26,23.94,4.09,24,4.04,24.08c-0.44,0.74-1.18,1.03-2.11,1.08c-2.31,0.12-4.62,0.26-6.93,0.39c-0.8,0.05-1.6,0.1-2.4,0.15
		C-7.4,28.61-7.4,31.48-7.4,34.39z M-7.4,20.93c0.28,0.02,0.51,0.04,0.74,0.06c2.96,0.17,5.92,0.34,8.88,0.51
		c0.78,0.05,1.4,0.35,1.74,0.94c0.26,0.44,0.68,0.2,1.02,0.23c0.11,0.01,0.3-0.18,0.36-0.32c0.61-1.33,1.2-2.67,1.78-4
		c0.15-0.33,0.35-0.6,0.83-0.57c0.4,0.02,0.63,0.26,0.68,0.73c0.08,0.73,0.14,1.46,0.21,2.19c0.09,0.95,0.18,1.91,0.28,2.86
		c0.14-0.11,0.2-0.22,0.25-0.34c0.96-2.25,1.92-4.49,2.88-6.74c0.14-0.33,0.36-0.56,0.82-0.53c0.38,0.02,0.61,0.24,0.66,0.66
		c0.23,1.98,0.45,3.96,0.68,5.94c0.12,1.08,0.25,2.17,0.37,3.25c0.28-0.61,0.48-1.23,0.67-1.85c0.4-1.26,0.8-2.52,1.2-3.78
		c0.1-0.32,0.33-0.53,0.72-0.53c0.4,0,0.63,0.2,0.73,0.52c0.09,0.28,0.19,0.56,0.29,0.84c0.12,0.35,0.24,0.7,0.36,1.05
		c0.55-1.63,1.03-3.25,1.51-4.87c0.13-0.42,0.4-0.63,0.78-0.62c0.39,0.01,0.65,0.24,0.73,0.66c0.36,1.9,0.71,3.81,1.07,5.71
		c0.15,0.82,0.31,1.65,0.47,2.47c0.1-0.05,0.13-0.09,0.14-0.15c0.17-0.63,0.35-1.26,0.52-1.89c0.23-0.86,0.47-1.71,0.7-2.57
		c0.08-0.28,0.25-0.49,0.62-0.53c0.38-0.04,0.64,0.1,0.8,0.39c0.08,0.13,0.15,0.26,0.23,0.39c0.41,0.69,0.82,1.38,1.26,2.12
		c0.27-0.45,0.5-0.84,0.73-1.23c0.33-0.54,0.84-0.61,1.36-0.18c0.25,0.2,0.5,0.41,0.8,0.66c0.01-0.14,0.02-0.2,0.02-0.26
		c0-2.27,0-4.54,0-6.81c0-0.18-0.02-0.37-0.05-0.55c-0.24-1.22-1.53-2.56-3.88-2.55c-11.16,0.02-22.33,0.01-33.49,0.01
		c-0.15,0-0.31,0.01-0.47,0.02C-7.4,15.17-7.4,18.04-7.4,20.93z M15.93,41.73c0.13,0.01,0.25,0.03,0.36,0.03
		c3.47,0,6.95,0.01,10.42-0.01c0.56,0,1.16-0.1,1.68-0.29c1.53-0.56,2.37-1.99,2.04-3.34c-0.36-1.48-1.75-2.48-3.57-2.49
		c-3.53-0.02-7.06-0.01-10.59,0c-0.11,0-0.22,0.02-0.33,0.04C15.93,37.7,15.93,39.71,15.93,41.73z M-8.55,24.55
		c0-0.01,0-0.02,0-0.03c3.19-0.18,6.38-0.36,9.57-0.54c0.36-0.02,0.72-0.03,1.08-0.07c0.43-0.04,0.68-0.28,0.67-0.6
		c-0.01-0.35-0.25-0.53-0.64-0.58c-0.19-0.02-0.37-0.03-0.56-0.04c-1.99-0.12-3.98-0.23-5.97-0.34c-1.5-0.09-3-0.18-4.5-0.24
		c-0.73-0.03-1.34,0.41-1.45,0.99c-0.12,0.62,0.27,1.21,0.96,1.38C-9.14,24.54-8.84,24.53-8.55,24.55z"/>
</g>
</svg>
